<?xml version="1.0" encoding="UTF-8" ?>
<!DOCTYPE svg PUBLIC "-//W3C//DTD SVG 1.1//EN" "http://www.w3.org/Graphics/SVG/1.1/DTD/svg11.dtd">
<svg width="1640pt" height="413pt" viewBox="0 0 1640 413" version="1.1" xmlns="http://www.w3.org/2000/svg">
<g id="#009fe3ff">
<path fill="#009fe3" opacity="1.00" d=" M 177.30 0.00 L 177.60 0.00 C 187.09 6.00 197.24 11.04 207.08 16.49 C 205.29 20.11 203.16 23.55 201.14 27.06 C 176.88 69.07 152.52 111.02 128.30 153.06 C 110.01 122.48 92.01 91.72 73.85 61.05 C 83.27 55.59 92.72 50.18 102.12 44.68 C 110.83 58.05 118.71 71.94 127.53 85.23 C 144.02 56.76 160.73 28.42 177.30 0.00 Z" />
<path fill="#009fe3" opacity="1.00" d=" M 198.23 138.61 C 216.14 107.66 233.95 76.65 251.90 45.73 C 261.56 51.20 271.12 56.85 280.77 62.33 C 272.60 76.73 264.11 90.95 256.05 105.40 C 289.24 105.34 322.43 105.39 355.63 105.38 C 355.62 116.46 355.63 127.54 355.62 138.63 C 303.16 138.61 250.69 138.65 198.23 138.61 Z" />
<path fill="#009fe3" opacity="1.00" d=" M 0.00 102.88 C 9.75 96.97 19.56 91.19 29.31 85.29 C 55.40 130.91 81.40 176.59 107.42 222.24 C 71.61 222.25 35.80 222.96 0.00 222.56 L 0.00 190.79 C 1.29 190.20 2.65 189.93 4.08 189.97 C 18.89 189.61 33.70 189.26 48.51 188.84 C 32.28 160.28 16.37 131.55 0.00 103.08 L 0.00 102.88 Z" />
<path fill="#009fe3" opacity="1.00" d=" M 248.08 190.32 C 283.87 190.27 319.68 190.07 355.47 190.42 C 355.28 201.46 355.38 212.50 355.42 223.54 C 338.92 223.81 322.42 223.41 305.93 223.74 C 322.49 252.48 339.13 281.17 355.66 309.93 C 346.04 315.46 336.43 321.03 326.81 326.57 C 300.52 281.18 274.36 235.71 248.08 190.32 Z" />
<path fill="#009fe3" opacity="1.00" d=" M 228.27 260.23 C 246.26 290.98 263.98 321.89 281.79 352.75 C 272.27 358.09 262.80 363.51 253.26 368.82 C 244.93 355.23 236.91 341.45 228.41 327.98 C 211.66 356.24 194.68 384.36 177.89 412.60 C 167.91 407.09 158.01 401.43 148.06 395.85 C 174.78 350.64 201.54 305.44 228.27 260.23 Z" />
<path fill="#009fe3" opacity="1.00" d=" M 0.37 274.63 C 52.91 274.61 105.45 274.62 157.98 274.88 C 140.39 305.83 123.12 336.97 105.38 367.84 C 96.01 362.26 86.47 356.98 77.11 351.40 C 84.75 337.42 92.19 323.33 99.82 309.35 C 66.94 309.09 34.05 308.91 1.17 308.78 C 0.77 297.40 0.71 286.01 0.37 274.63 Z" />
</g>
<g id="#262626ff">
<path fill="#262626" opacity="1.00" d=" M 620.73 136.81 C 637.56 128.73 656.91 128.91 675.10 130.50 C 689.25 132.06 704.48 135.66 714.55 146.46 C 721.41 153.80 723.86 164.15 723.51 173.96 C 723.49 186.64 723.51 199.31 723.50 211.99 C 723.66 222.98 723.53 234.27 719.68 244.72 C 715.65 256.43 706.93 266.31 695.96 272.00 C 683.65 278.37 669.73 280.84 656.03 281.88 C 640.64 283.04 624.31 281.31 610.97 272.99 C 602.02 267.54 595.56 258.32 593.45 248.05 C 590.62 234.81 592.31 219.82 600.92 208.95 C 607.58 200.49 617.75 195.83 627.84 192.83 C 639.25 189.40 651.12 188.07 662.92 186.82 C 669.71 185.69 677.24 184.39 682.25 179.23 C 685.54 175.87 685.50 170.17 682.37 166.72 C 678.23 162.02 671.58 161.02 665.68 160.43 C 657.86 160.06 649.55 159.82 642.32 163.28 C 639.16 164.67 637.14 167.56 635.69 170.56 C 622.79 170.45 609.89 170.48 597.00 170.55 C 598.43 156.23 607.66 142.94 620.73 136.81 M 655.05 213.87 C 648.03 215.18 640.65 217.25 635.52 222.51 C 628.99 229.03 629.58 240.69 635.87 247.15 C 640.93 251.98 648.46 252.25 655.03 251.70 C 665.46 250.92 676.41 246.00 681.43 236.36 C 686.68 226.92 685.14 215.78 685.38 205.44 C 675.52 209.09 665.38 211.95 655.05 213.87 Z" />
<path fill="#262626" opacity="1.00" d=" M 744.00 129.64 C 758.00 129.62 772.00 129.62 786.00 129.63 C 786.00 179.46 786.01 229.29 785.99 279.12 C 772.00 279.13 758.00 279.13 744.01 279.12 C 743.99 229.29 744.00 179.46 744.00 129.64 Z" />
<path fill="#262626" opacity="1.00" d=" M 808.11 129.66 C 822.07 129.58 836.03 129.64 850.00 129.63 C 850.00 179.46 850.01 229.29 849.99 279.12 C 836.04 279.13 822.08 279.14 808.13 279.12 C 808.11 229.30 808.14 179.48 808.11 129.66 Z" />
<path fill="#262626" opacity="1.00" d=" M 886.33 151.35 C 896.92 138.31 913.62 131.98 929.95 130.34 C 947.40 128.60 966.00 129.84 981.62 138.49 C 992.85 144.63 1001.22 155.21 1005.77 167.08 C 1011.78 182.63 1012.65 199.63 1011.84 216.12 C 978.30 216.09 944.76 216.21 911.23 216.06 C 911.70 225.13 913.95 234.74 920.31 241.57 C 926.29 247.99 935.52 250.13 944.02 249.68 C 952.98 249.26 961.45 245.05 967.88 238.92 C 971.06 235.75 975.50 233.99 979.98 234.01 C 989.83 233.98 999.68 234.01 1009.53 234.00 C 1005.75 248.01 998.69 261.93 986.55 270.45 C 969.05 281.57 947.23 284.42 927.00 281.12 C 911.34 278.79 895.74 271.80 885.87 259.05 C 873.71 243.59 870.64 223.15 870.74 204.00 C 870.92 185.58 874.27 165.95 886.33 151.35 M 922.54 166.58 C 915.97 172.32 913.12 181.01 911.72 189.36 C 931.25 189.38 950.77 189.39 970.30 189.36 C 969.42 182.95 967.85 176.43 964.18 171.00 C 960.56 165.42 954.43 161.77 947.91 160.73 C 939.18 159.33 929.37 160.53 922.54 166.58 Z" />
<path fill="#262626" opacity="1.00" d=" M 1289.84 147.84 C 1302.11 135.38 1320.00 130.55 1337.03 129.80 C 1354.55 128.98 1373.33 131.52 1387.75 142.27 C 1399.88 151.19 1406.95 165.44 1409.90 179.94 C 1412.46 191.81 1412.71 204.03 1412.17 216.12 C 1378.61 216.12 1345.06 216.16 1311.50 216.10 C 1312.12 225.35 1314.36 235.22 1321.08 242.03 C 1327.47 248.50 1337.14 250.34 1345.90 249.57 C 1354.50 248.78 1362.43 244.47 1368.61 238.57 C 1371.90 235.39 1376.52 233.88 1381.06 233.99 C 1390.68 234.04 1400.30 233.91 1409.92 234.07 C 1405.87 248.30 1398.74 262.64 1386.03 270.99 C 1365.54 283.49 1339.72 285.14 1316.89 278.82 C 1302.62 274.92 1289.54 265.92 1282.02 253.01 C 1272.07 236.21 1270.42 215.99 1271.31 196.89 C 1272.26 179.26 1277.03 160.69 1289.84 147.84 M 1322.72 166.70 C 1316.26 172.43 1313.48 181.03 1312.03 189.29 C 1331.54 189.49 1351.06 189.32 1370.57 189.38 C 1369.79 182.84 1368.10 176.22 1364.32 170.74 C 1360.64 165.21 1354.47 161.65 1347.96 160.68 C 1339.25 159.35 1329.48 160.62 1322.72 166.70 Z" />
<path fill="#262626" opacity="1.00" d=" M 1440.00 129.63 C 1446.98 129.64 1453.96 129.58 1460.94 129.65 C 1466.03 129.74 1471.60 130.91 1475.16 134.85 C 1478.65 138.65 1479.27 144.06 1479.26 149.00 C 1479.23 181.64 1479.27 214.28 1479.24 246.92 C 1479.23 255.08 1477.56 263.72 1472.19 270.13 C 1467.92 275.43 1461.51 278.38 1455.10 280.20 C 1444.59 283.14 1433.58 283.24 1422.76 283.12 C 1422.70 272.25 1422.82 261.38 1422.69 250.52 C 1427.38 249.93 1432.57 251.39 1436.86 248.85 C 1439.43 246.75 1439.91 243.10 1439.99 239.98 C 1440.01 203.20 1439.99 166.41 1440.00 129.63 Z" />
<path fill="#262626" opacity="1.00" d=" M 1553.52 130.68 C 1571.58 128.47 1590.83 129.32 1607.38 137.57 C 1620.71 144.21 1630.43 156.80 1634.90 170.87 C 1639.89 185.98 1640.51 202.16 1639.49 217.92 C 1638.17 235.10 1633.08 253.07 1620.35 265.35 C 1607.88 277.54 1589.95 281.97 1572.97 282.39 C 1554.86 282.94 1535.38 279.99 1520.98 268.15 C 1506.93 256.73 1500.69 238.48 1499.00 220.97 C 1497.39 203.12 1498.10 184.57 1504.47 167.63 C 1509.29 154.67 1518.82 143.37 1531.35 137.32 C 1538.27 133.82 1545.86 131.80 1553.52 130.68 M 1563.57 162.76 C 1556.13 163.70 1549.15 167.93 1545.20 174.36 C 1539.49 183.46 1538.28 194.53 1538.11 205.05 C 1538.16 215.23 1539.17 225.80 1543.88 234.99 C 1547.18 241.53 1553.29 246.66 1560.50 248.28 C 1569.22 250.18 1579.26 249.30 1586.33 243.37 C 1592.70 238.05 1595.79 229.91 1597.37 221.97 C 1599.41 210.81 1599.54 199.24 1597.43 188.08 C 1595.87 180.41 1592.69 172.55 1586.32 167.64 C 1579.95 162.67 1571.36 161.68 1563.57 162.76 Z" />
<path fill="#262626" opacity="1.00" d=" M 438.87 131.89 C 453.28 131.98 467.73 131.63 482.12 132.06 C 492.73 166.11 503.12 200.24 513.51 234.37 C 517.12 224.93 519.44 215.02 522.55 205.39 C 528.56 185.41 534.52 165.40 540.53 145.42 C 542.55 137.64 549.90 131.81 557.99 131.90 C 568.76 131.84 579.53 131.86 590.30 131.90 C 571.89 180.98 553.52 230.07 535.07 279.13 C 521.16 279.01 507.25 279.35 493.35 278.96 C 475.34 229.88 456.96 180.94 438.87 131.89 Z" />
<path fill="#262626" opacity="1.00" d=" M 1043.93 131.90 C 1058.34 131.95 1072.77 131.67 1087.17 132.03 C 1097.85 166.22 1108.30 200.50 1118.69 234.78 C 1128.07 204.60 1136.79 174.21 1146.11 144.00 C 1148.47 136.88 1155.51 131.89 1163.01 131.90 C 1173.79 131.84 1184.58 131.87 1195.37 131.90 C 1176.97 180.97 1158.60 230.06 1140.15 279.11 C 1126.23 279.01 1112.30 279.38 1098.40 278.93 C 1080.42 229.86 1062.04 180.93 1043.93 131.90 Z" />
<path fill="#262626" opacity="1.00" d=" M 1213.01 131.88 C 1220.01 131.88 1227.01 131.87 1234.01 131.87 C 1238.82 131.90 1244.04 132.91 1247.62 136.39 C 1251.04 139.58 1252.22 144.46 1252.26 149.00 C 1252.24 193.70 1252.27 238.41 1252.24 283.12 C 1239.16 283.13 1226.08 283.13 1213.00 283.12 C 1213.00 232.71 1212.99 182.29 1213.01 131.88 Z" />
</g>
</svg>
